<?xml version="1.0" standalone="no"?>
<!DOCTYPE svg PUBLIC "-//W3C//DTD SVG 20010904//EN"
 "http://www.w3.org/TR/2001/REC-SVG-20010904/DTD/svg10.dtd">
<svg version="1.0" xmlns="http://www.w3.org/2000/svg"
 width="800.000000pt" height="600.000000pt" viewBox="0 0 800.000000 600.000000"
 preserveAspectRatio="xMidYMid meet">

<g transform="translate(0.000000,600.000000) scale(0.100000,-0.100000)"
fill="#000000" stroke="none">
<path d="M0 3000 l0 -3000 4000 0 4000 0 0 3000 0 3000 -4000 0 -4000 0 0
-3000z m4090 1106 c8 -3 31 -7 50 -9 19 -3 43 -8 52 -11 9 -4 22 -9 30 -10 7
-2 24 -8 38 -13 14 -6 28 -9 33 -6 4 2 7 1 7 -4 0 -4 21 -19 48 -33 26 -13 71
-44 100 -67 30 -24 58 -40 63 -37 5 3 8 0 7 -8 -2 -7 3 -12 10 -10 6 1 11 -4
10 -10 -2 -7 3 -12 10 -10 8 1 11 -2 8 -7 -5 -7 51 -91 73 -111 3 -3 17 -25
30 -50 14 -25 29 -48 34 -51 5 -3 8 -9 7 -13 -2 -12 23 -75 29 -71 3 2 7 -8 8
-22 0 -14 5 -28 10 -32 4 -3 9 -17 11 -31 1 -14 7 -27 12 -28 6 -2 8 -8 5 -13
-4 -5 -1 -26 5 -46 6 -21 14 -58 16 -83 3 -25 9 -49 14 -55 10 -13 9 -536 -2
-529 -4 3 -9 -11 -10 -30 -1 -20 -2 -44 -2 -53 -1 -10 -4 -20 -8 -23 -3 -3 -8
-18 -11 -35 -6 -36 -33 -118 -52 -160 -7 -16 -11 -33 -9 -37 3 -4 1 -8 -4 -8
-10 0 -36 -53 -32 -66 1 -4 -2 -10 -7 -13 -5 -3 -25 -28 -43 -56 -46 -67 -201
-226 -275 -282 -142 -107 -285 -153 -476 -153 -140 0 -238 22 -354 79 -200 99
-350 292 -430 553 -15 48 -30 86 -34 83 -4 -2 -7 4 -7 13 0 59 -5 92 -13 88
-5 -3 -8 99 -6 242 1 186 6 271 19 342 35 188 99 347 190 474 58 81 239 265
296 301 25 15 48 32 51 37 3 5 8 9 10 7 10 -6 77 26 72 34 -3 6 -1 7 5 3 14
-8 64 3 57 13 -2 4 4 7 13 7 56 0 93 5 89 12 -6 8 231 7 253 -2z m-1530 -40
c0 -7 -7 -19 -15 -26 -9 -7 -13 -15 -11 -18 3 -2 -2 -11 -10 -19 -24 -25 -75
-103 -67 -103 4 0 3 -4 -3 -8 -12 -8 -94 -118 -94 -126 0 -3 -16 -26 -35 -52
-19 -25 -32 -51 -29 -56 4 -7 2 -8 -4 -4 -7 4 -12 1 -12 -8 0 -9 -3 -16 -8
-16 -10 0 -58 -79 -54 -92 1 -5 -2 -7 -8 -3 -5 3 -10 -1 -10 -9 0 -9 -3 -16
-8 -16 -10 0 -58 -79 -54 -91 1 -5 -1 -8 -5 -7 -5 2 -9 -1 -10 -6 -1 -5 -5
-12 -11 -15 -13 -8 -83 -111 -76 -111 3 0 -2 -7 -10 -16 -26 -25 -78 -104 -69
-104 4 0 3 -4 -3 -8 -12 -8 -94 -118 -94 -126 0 -3 -16 -26 -35 -52 -19 -25
-32 -51 -29 -56 4 -7 2 -8 -4 -4 -7 4 -12 1 -12 -8 0 -8 -4 -16 -8 -18 -5 -1
-22 -24 -39 -49 l-32 -46 213 0 213 0 7 66 c3 36 6 105 6 154 l0 87 40 0 40 0
0 45 0 45 45 1 c25 0 119 1 210 1 91 0 170 -1 175 -1 6 -1 10 -74 10 -199 l0
-199 168 1 167 1 -2 -145 c-1 -80 -5 -173 -9 -207 l-7 -63 -43 0 -44 0 0 -40
0 -40 -54 0 c-29 0 -81 -3 -115 -6 l-61 -7 0 -173 0 -174 -45 0 -45 0 0 -45 0
-45 -225 0 -225 0 0 225 0 225 -535 0 -535 0 0 163 0 163 469 679 c258 373
478 682 489 686 11 4 29 23 41 43 12 19 30 37 39 39 9 3 119 5 245 6 187 1
227 -1 227 -13z m3880 0 c0 -7 -7 -19 -15 -26 -9 -7 -13 -15 -11 -18 3 -2 -2
-11 -10 -19 -20 -21 -76 -103 -69 -103 3 0 -6 -12 -19 -27 -26 -29 -76 -101
-76 -108 0 -3 -16 -25 -35 -51 -19 -25 -32 -51 -29 -56 4 -7 2 -8 -4 -4 -7 4
-12 1 -12 -8 0 -9 -3 -16 -8 -16 -10 0 -58 -79 -54 -92 1 -5 -2 -7 -8 -3 -5 3
-10 0 -10 -9 0 -8 -4 -16 -8 -18 -11 -4 -77 -102 -73 -107 1 -2 -1 -7 -7 -10
-13 -8 -83 -111 -76 -111 3 0 -2 -7 -10 -16 -22 -21 -78 -104 -71 -104 3 0 -6
-12 -19 -27 -26 -29 -76 -101 -76 -108 0 -3 -16 -25 -35 -51 -19 -25 -32 -51
-29 -56 4 -7 2 -8 -4 -4 -7 4 -12 1 -12 -8 0 -8 -4 -16 -8 -18 -5 -1 -22 -24
-39 -49 l-32 -46 213 0 213 0 7 66 c3 36 6 105 6 154 l0 87 40 0 40 0 0 45 0
45 45 1 c25 0 119 1 210 1 91 0 170 -1 175 -1 6 -1 10 -74 10 -199 l0 -199
168 1 167 1 -2 -145 c-1 -80 -5 -173 -9 -207 l-7 -63 -43 0 -44 0 0 -40 0 -40
-54 0 c-29 0 -81 -3 -115 -6 l-61 -7 0 -173 0 -174 -45 0 -45 0 0 -45 0 -45
-225 0 -225 0 0 225 0 225 -535 0 -535 0 0 164 0 163 465 674 c267 387 476
679 490 687 13 7 33 28 45 47 11 18 29 36 38 38 9 3 119 5 245 6 187 1 227 -1
227 -13z"/>
<path d="M3780 3589 c-70 -29 -139 -128 -143 -204 -1 -18 -5 -31 -9 -28 -5 2
-9 -4 -9 -14 -1 -10 -3 -27 -5 -38 -18 -99 -22 -161 -20 -345 2 -116 7 -215
12 -218 5 -4 10 -23 12 -42 1 -19 5 -42 9 -50 3 -8 8 -26 10 -40 2 -13 9 -27
15 -31 5 -3 9 -9 9 -13 -3 -22 1 -34 17 -52 10 -10 20 -23 23 -29 2 -5 7 -9
11 -8 4 2 5 -3 2 -10 -13 -34 140 -137 197 -133 16 1 29 -2 29 -7 0 -5 15 -6
33 -3 29 6 58 10 95 14 7 1 10 7 6 14 -4 7 -3 8 4 4 17 -10 64 21 91 59 58 85
88 218 97 430 14 317 -37 532 -154 657 -68 73 -109 91 -217 95 -49 1 -101 -2
-115 -8z"/>
</g>
</svg>
